<svg width="190" height="190" viewBox="0 0 190 190" fill="none" xmlns="http://www.w3.org/2000/svg">
<circle opacity="0.5" cx="95" cy="95" r="95" fill="#111827"/>
<mask id="mask0" mask-type="alpha" maskUnits="userSpaceOnUse" x="0" y="0" width="190" height="190">
<circle cx="95" cy="95" r="95" fill="#111827"/>
</mask>
<g mask="url(#mask0)">
<g filter="url(#filter0_dd)">
<path d="M28.485 39.2666H122.473C125.659 39.2702 128.714 40.5377 130.968 42.791C133.221 45.0443 134.489 48.0995 134.492 51.2861V102.705C134.489 105.891 133.221 108.947 130.968 111.2C128.714 113.453 125.659 114.721 122.473 114.724H28.485C25.2983 114.721 22.2432 113.453 19.9899 111.2C17.7366 108.947 16.4691 105.891 16.4655 102.705V51.2861C16.4691 48.0995 17.7366 45.0443 19.9899 42.791C22.2432 40.5377 25.2983 39.2702 28.485 39.2666V39.2666Z" fill="#6B7280"/>
</g>
<path d="M28.485 42.7266H122.473C124.742 42.7291 126.918 43.6317 128.522 45.2364C130.127 46.841 131.03 49.0166 131.032 51.2859V102.705C131.03 104.974 130.127 107.15 128.522 108.754C126.918 110.359 124.742 111.261 122.473 111.264H28.485C26.2157 111.261 24.0401 110.359 22.4355 108.754C20.8309 107.15 19.9283 104.974 19.9258 102.705V51.2859C19.9283 49.0166 20.8309 46.841 22.4355 45.2364C24.0401 43.6317 26.2157 42.7291 28.485 42.7266Z" fill="#4B5563"/>
<path d="M77.3647 68.5399C78.4786 68.5399 79.3817 67.6369 79.3817 66.5229C79.3817 65.4089 78.4786 64.5059 77.3647 64.5059C76.2507 64.5059 75.3477 65.4089 75.3477 66.5229C75.3477 67.6369 76.2507 68.5399 77.3647 68.5399Z" fill="#374151"/>
<path d="M101.404 68.0231H85.4344C84.9828 68.0231 84.5496 67.8436 84.2302 67.5243C83.9109 67.2049 83.7314 66.7718 83.7314 66.3201C83.7314 65.8685 83.9109 65.4353 84.2302 65.116C84.5496 64.7966 84.9828 64.6172 85.4344 64.6172H101.404C101.856 64.6172 102.289 64.7966 102.608 65.116C102.928 65.4353 103.107 65.8685 103.107 66.3201C103.107 66.7718 102.928 67.2049 102.608 67.5243C102.289 67.8436 101.856 68.0231 101.404 68.0231V68.0231Z" fill="#818CF8"/>
<path d="M77.3647 76.9139C78.4786 76.9139 79.3817 76.0109 79.3817 74.8969C79.3817 73.7829 78.4786 72.8799 77.3647 72.8799C76.2507 72.8799 75.3477 73.7829 75.3477 74.8969C75.3477 76.0109 76.2507 76.9139 77.3647 76.9139Z" fill="#374151"/>
<path d="M107.434 76.399H85.4344C84.9827 76.399 84.5496 76.2196 84.2302 75.9003C83.9109 75.5809 83.7314 75.1477 83.7314 74.6961C83.7314 74.2444 83.9109 73.8113 84.2302 73.4919C84.5496 73.1726 84.9827 72.9932 85.4344 72.9932H107.434C107.886 72.9932 108.319 73.1726 108.639 73.4919C108.958 73.8113 109.137 74.2444 109.137 74.6961C109.137 75.1477 108.958 75.5809 108.639 75.9003C108.319 76.2196 107.886 76.399 107.434 76.399Z" fill="#818CF8"/>
<path d="M77.3647 85.2919C78.4786 85.2919 79.3817 84.3888 79.3817 83.2748C79.3817 82.1609 78.4786 81.2578 77.3647 81.2578C76.2507 81.2578 75.3477 82.1609 75.3477 83.2748C75.3477 84.3888 76.2507 85.2919 77.3647 85.2919Z" fill="#374151"/>
<path d="M94.366 84.775H85.432C85.2082 84.7753 84.9865 84.7315 84.7796 84.6461C84.5726 84.5607 84.3846 84.4353 84.2262 84.2771C84.0678 84.119 83.9422 83.9311 83.8564 83.7243C83.7707 83.5176 83.7266 83.2959 83.7266 83.0721C83.7266 82.8482 83.7707 82.6266 83.8564 82.4198C83.9422 82.213 84.0678 82.0252 84.2262 81.867C84.3846 81.7089 84.5726 81.5835 84.7796 81.4981C84.9865 81.4126 85.2082 81.3688 85.432 81.3691H94.366C94.8172 81.3698 95.2497 81.5495 95.5685 81.8688C95.8874 82.1881 96.0664 82.6209 96.0664 83.0721C96.0664 83.5233 95.8874 83.9561 95.5685 84.2753C95.2497 84.5946 94.8172 84.7743 94.366 84.775V84.775Z" fill="#818CF8"/>
<path d="M50.0826 85.8721C50.0902 85.8722 50.0978 85.872 50.1054 85.8716C53.9883 85.6685 57.648 83.9941 60.3404 81.1889C63.0328 78.3836 64.5556 74.6582 64.5992 70.7703C64.6428 66.8823 63.2039 63.1237 60.5751 60.2588C57.9462 57.3939 54.3249 55.6379 50.4476 55.3478C50.3996 55.344 50.3514 55.3502 50.306 55.3659C50.2605 55.3817 50.2188 55.4066 50.1835 55.4393C50.1483 55.4714 50.1201 55.5104 50.1007 55.5539C50.0813 55.5974 50.0711 55.6444 50.0707 55.6921L49.7363 85.5189C49.7355 85.6116 49.7715 85.7009 49.8364 85.7671C49.9013 85.8333 49.9899 85.8711 50.0826 85.8721V85.8721Z" fill="#374151"/>
<path d="M38.0868 60.2803C38.2059 60.2817 38.3196 60.3303 38.4029 60.4153L48.6711 70.9163C48.7124 70.9583 48.7449 71.0081 48.7669 71.0627C48.7888 71.1174 48.7997 71.1759 48.7988 71.2348L48.6389 85.507C48.6384 85.5683 48.6253 85.6288 48.6003 85.6847C48.5754 85.7406 48.5391 85.7908 48.4938 85.832C48.4484 85.8738 48.3949 85.9058 48.3366 85.926C48.2784 85.9462 48.2166 85.9543 48.155 85.9497C45.3001 85.736 42.5613 84.7304 40.2464 83.0459C37.9315 81.3614 36.1322 79.0647 35.0507 76.4138C33.9692 73.763 33.6484 70.8631 34.1243 68.04C34.6002 65.2169 35.854 62.5824 37.7447 60.4326C37.7856 60.3863 37.8356 60.3489 37.8916 60.3227C37.9476 60.2965 38.0084 60.2821 38.0702 60.2804C38.0757 60.2803 38.0813 60.2802 38.0868 60.2803Z" fill="#E5E7EB"/>
<path d="M48.5278 55.2256C48.6425 55.227 48.7523 55.2719 48.8351 55.3512C48.8795 55.3934 48.9147 55.4445 48.9384 55.501C48.9622 55.5575 48.9739 55.6184 48.973 55.6797L48.8287 68.557C48.8277 68.6457 48.8004 68.732 48.7503 68.8052C48.7002 68.8784 48.6295 68.9351 48.5472 68.9681C48.4649 69.0011 48.3747 69.009 48.2879 68.9907C48.2012 68.9724 48.1218 68.9288 48.0598 68.8655L39.0996 59.7021C39.057 59.6585 39.0237 59.6067 39.0018 59.5499C38.9799 59.4931 38.9697 59.4324 38.972 59.3715C38.9742 59.3106 38.9889 59.2508 39.0149 59.1958C39.041 59.1407 39.078 59.0916 39.1237 59.0513C41.7297 56.7575 45.0332 55.4098 48.5 55.2262C48.5093 55.2257 48.5186 55.2255 48.5278 55.2256Z" fill="#818CF8"/>
<path d="M43.9135 94.3167C43.9075 94.86 43.7404 95.3892 43.4335 95.8376C43.1267 96.2859 42.6937 96.6331 42.1895 96.8354C41.6853 97.0377 41.1324 97.0859 40.6007 96.9739C40.0691 96.8619 39.5826 96.5949 39.2028 96.2064C38.823 95.818 38.5669 95.3256 38.4669 94.7916C38.3669 94.2576 38.4274 93.7059 38.641 93.2064C38.8545 92.7068 39.2113 92.2818 39.6664 91.985C40.1215 91.6883 40.6543 91.5331 41.1976 91.5392C41.9258 91.5482 42.6207 91.8457 43.1299 92.3664C43.639 92.8871 43.9209 93.5885 43.9135 94.3167Z" fill="#818CF8"/>
<path d="M51.7602 94.4056C51.7541 94.9489 51.5871 95.4781 51.2802 95.9264C50.9733 96.3747 50.5404 96.722 50.0362 96.9243C49.5319 97.1265 48.9791 97.1747 48.4474 97.0628C47.9158 96.9508 47.4293 96.6837 47.0495 96.2953C46.6697 95.9069 46.4136 95.4145 46.3135 94.8805C46.2135 94.3465 46.2741 93.7948 46.4877 93.2953C46.7012 92.7957 47.058 92.3707 47.5131 92.0739C47.9682 91.7772 48.501 91.622 49.0443 91.6281C49.7725 91.6371 50.4674 91.9346 50.9766 92.4553C51.4857 92.976 51.7676 93.6774 51.7602 94.4056V94.4056Z" fill="#374151"/>
<path d="M59.6069 94.4925C59.6008 95.0358 59.4338 95.565 59.1269 96.0133C58.82 96.4616 58.3871 96.8089 57.8829 97.0112C57.3786 97.2134 56.8257 97.2616 56.2941 97.1497C55.7625 97.0377 55.276 96.7706 54.8962 96.3822C54.5163 95.9938 54.2602 95.5014 54.1602 94.9674C54.0602 94.4334 54.1208 93.8817 54.3343 93.3822C54.5478 92.8826 54.9047 92.4576 55.3598 92.1608C55.8149 91.8641 56.3477 91.7089 56.891 91.715C57.6192 91.724 58.3141 92.0215 58.8232 92.5422C59.3324 93.0629 59.6142 93.7643 59.6069 94.4925Z" fill="#E6E6E6"/>
<g filter="url(#filter1_dd)">
<path d="M183.292 83.6006H89.2882C86.101 83.6042 83.0453 84.8719 80.7916 87.1256C78.5379 89.3793 77.2702 92.435 77.2666 95.6222V147.05C77.2702 150.237 78.5379 153.293 80.7916 155.546C83.0453 157.8 86.101 159.068 89.2882 159.072H183.292C186.48 159.068 189.535 157.8 191.789 155.546C194.043 153.293 195.31 150.237 195.314 147.05V95.6222C195.31 92.435 194.043 89.3793 191.789 87.1256C189.535 84.8719 186.48 83.6042 183.292 83.6006V83.6006Z" fill="#4B5563"/>
</g>
<path d="M183.294 87.0605H89.2894C87.0197 87.0631 84.8437 87.9659 83.2388 89.5708C81.6338 91.1757 80.7311 93.3517 80.7285 95.6214V147.049C80.7311 149.319 81.6338 151.495 83.2388 153.1C84.8437 154.705 87.0197 155.607 89.2894 155.61H183.294C185.563 155.607 187.739 154.705 189.344 153.1C190.949 151.495 191.852 149.319 191.854 147.049V95.6214C191.852 93.3517 190.949 91.1757 189.344 89.5708C187.739 87.9659 185.563 87.0631 183.294 87.0605Z" fill="#374151"/>
<path d="M184.542 144.346L87.5402 143.645C87.135 143.641 86.7477 143.477 86.4632 143.189C86.1788 142.9 86.0204 142.511 86.0229 142.105L86.3278 99.9219C86.3312 99.5167 86.4952 99.1294 86.7838 98.8449C87.0724 98.5605 87.462 98.4021 87.8673 98.4046L184.869 99.1058C185.274 99.1092 185.661 99.2732 185.946 99.5618C186.23 99.8504 186.388 100.24 186.386 100.645L186.081 142.829C186.078 143.234 185.914 143.621 185.625 143.906C185.336 144.19 184.947 144.348 184.542 144.346Z" fill="#374151"/>
<path d="M91.8047 103.574C91.5615 103.572 91.3276 103.667 91.1543 103.838C90.9811 104.009 90.8828 104.241 90.8811 104.484C90.8793 104.728 90.9742 104.962 91.145 105.135C91.3157 105.308 91.5483 105.406 91.7915 105.408L104.63 105.501C104.873 105.503 105.107 105.408 105.28 105.237C105.453 105.066 105.552 104.834 105.554 104.59C105.555 104.347 105.46 104.113 105.29 103.94C105.119 103.767 104.886 103.669 104.643 103.667L91.8047 103.574Z" fill="#9CA3AF"/>
<path opacity="0.6" d="M179.647 110.587L179.524 127.592L92.9506 126.966L93.0153 118.013C93.6176 117.632 94.2235 117.253 94.8347 116.887C97.4452 115.315 100.238 113.848 103.274 113.319C104.71 113.062 106.179 113.054 107.617 113.296C109.137 113.558 110.589 114.093 112.027 114.629C113.445 115.16 114.867 115.707 116.352 116.02C117.799 116.314 119.286 116.355 120.747 116.138C123.533 115.741 126.157 114.641 128.769 113.648C131.397 112.649 134.104 111.707 136.941 111.601C139.742 111.495 142.503 112.176 145.154 113.016C150.559 114.727 156.073 117.247 161.821 115.587C167.658 113.905 173.052 108.966 179.496 110.49C179.557 110.501 179.611 110.536 179.647 110.587V110.587Z" fill="#1F2937"/>
<path d="M179.646 110.882C179.618 110.934 179.573 110.975 179.519 110.998C179.465 111.021 179.405 111.026 179.348 111.01C178.581 110.829 177.793 110.742 177.004 110.751C170.654 110.817 165.735 115.893 159.521 116.613C153.919 117.261 148.67 114.501 143.417 113.041C140.688 112.282 137.871 111.869 135.054 112.351C132.258 112.828 129.629 113.951 126.99 114.946C124.449 115.904 121.809 116.792 119.065 116.818C116.048 116.846 113.341 115.583 110.55 114.616C109.098 114.112 107.608 113.711 106.067 113.662C104.564 113.633 103.067 113.854 101.637 114.315C98.6572 115.239 95.9665 116.904 93.3463 118.559C93.3014 118.59 93.2469 118.604 93.1924 118.599C93.1362 118.591 93.0837 118.566 93.0419 118.528C93.0001 118.489 92.971 118.439 92.9585 118.384C92.9459 118.328 92.9505 118.27 92.9717 118.218C92.9928 118.165 93.0295 118.12 93.0768 118.088L93.1966 118.013C93.7977 117.633 94.4023 117.254 95.0123 116.888C97.6174 115.316 100.404 113.849 103.434 113.319C104.867 113.062 106.333 113.055 107.768 113.296C109.285 113.559 110.734 114.093 112.169 114.63C113.584 115.16 115.003 115.707 116.484 116.02C117.928 116.315 119.412 116.355 120.87 116.138C123.651 115.741 126.269 114.641 128.875 113.648C131.498 112.649 134.2 111.707 137.031 111.601C139.826 111.495 142.581 112.176 145.227 113.016C150.621 114.727 156.122 117.246 161.859 115.587C167.684 113.905 173.066 108.966 179.497 110.489C179.558 110.501 179.612 110.536 179.648 110.586C179.676 110.631 179.69 110.682 179.69 110.735C179.689 110.787 179.674 110.838 179.646 110.882V110.882Z" fill="#6366F1"/>
<path d="M104.972 114.761C105.67 114.766 106.241 114.204 106.246 113.505C106.251 112.806 105.689 112.236 104.99 112.231C104.291 112.226 103.721 112.788 103.715 113.487C103.71 114.186 104.273 114.756 104.972 114.761Z" fill="#6366F1"/>
<path d="M136.971 113.367C137.669 113.372 138.24 112.809 138.245 112.111C138.25 111.412 137.688 110.841 136.989 110.836C136.29 110.831 135.72 111.394 135.714 112.092C135.709 112.791 136.272 113.362 136.971 113.367Z" fill="#6366F1"/>
<path d="M176.02 112.022C176.719 112.027 177.29 111.465 177.295 110.766C177.3 110.067 176.737 109.497 176.039 109.492C175.34 109.487 174.769 110.049 174.764 110.748C174.759 111.446 175.322 112.017 176.02 112.022Z" fill="#6366F1"/>
<path d="M104.116 134.231C103.873 134.229 103.639 134.324 103.466 134.495C103.293 134.666 103.194 134.898 103.193 135.142C103.191 135.385 103.286 135.619 103.456 135.792C103.627 135.965 103.86 136.064 104.103 136.065L116.941 136.158C117.185 136.16 117.419 136.065 117.592 135.894C117.765 135.723 117.863 135.491 117.865 135.248C117.867 135.004 117.772 134.771 117.601 134.597C117.43 134.424 117.198 134.326 116.955 134.324L104.116 134.231Z" fill="#9CA3AF"/>
<path d="M95.8322 138.451C97.7455 138.465 99.3078 136.925 99.3216 135.011C99.3354 133.098 97.7956 131.536 95.8823 131.522C93.969 131.508 92.4068 133.048 92.3929 134.961C92.3791 136.875 93.9189 138.437 95.8322 138.451Z" fill="#6366F1"/>
<path d="M135.091 134.455C134.848 134.453 134.614 134.548 134.44 134.719C134.267 134.89 134.169 135.122 134.167 135.365C134.165 135.608 134.26 135.842 134.431 136.016C134.602 136.189 134.834 136.287 135.078 136.289L147.916 136.382C148.159 136.383 148.393 136.289 148.566 136.118C148.74 135.947 148.838 135.715 148.84 135.471C148.841 135.228 148.747 134.994 148.576 134.821C148.405 134.648 148.172 134.549 147.929 134.548L135.091 134.455Z" fill="#9CA3AF"/>
<path d="M126.807 138.675C128.72 138.689 130.282 137.149 130.296 135.236C130.31 133.323 128.77 131.761 126.857 131.747C124.944 131.733 123.381 133.273 123.368 135.186C123.354 137.099 124.894 138.662 126.807 138.675Z" fill="#818CF8"/>
<path d="M166.067 134.679C165.824 134.677 165.59 134.772 165.417 134.942C165.244 135.113 165.146 135.346 165.144 135.589C165.142 135.832 165.237 136.066 165.408 136.239C165.578 136.413 165.811 136.511 166.054 136.513L178.893 136.605C179.136 136.607 179.37 136.512 179.543 136.341C179.716 136.171 179.814 135.938 179.816 135.695C179.818 135.452 179.723 135.218 179.552 135.045C179.382 134.871 179.149 134.773 178.906 134.771L166.067 134.679Z" fill="#9CA3AF"/>
<path d="M157.78 138.898C159.694 138.912 161.256 137.372 161.27 135.459C161.284 133.545 159.744 131.983 157.831 131.969C155.917 131.956 154.355 133.495 154.341 135.409C154.327 137.322 155.867 138.884 157.78 138.898Z" fill="#C7D2FE"/>
</g>
<defs>
<filter id="filter0_dd" x="13.6197" y="38.3179" width="123.719" height="81.1499" filterUnits="userSpaceOnUse" color-interpolation-filters="sRGB">
<feFlood flood-opacity="0" result="BackgroundImageFix"/>
<feColorMatrix in="SourceAlpha" type="matrix" values="0 0 0 0 0 0 0 0 0 0 0 0 0 0 0 0 0 0 127 0"/>
<feOffset dy="1.8974"/>
<feGaussianBlur stdDeviation="1.42305"/>
<feColorMatrix type="matrix" values="0 0 0 0 0 0 0 0 0 0 0 0 0 0 0 0 0 0 0.1 0"/>
<feBlend mode="normal" in2="BackgroundImageFix" result="effect1_dropShadow"/>
<feColorMatrix in="SourceAlpha" type="matrix" values="0 0 0 0 0 0 0 0 0 0 0 0 0 0 0 0 0 0 127 0"/>
<feOffset dy="0.948701"/>
<feGaussianBlur stdDeviation="0.948701"/>
<feColorMatrix type="matrix" values="0 0 0 0 0 0 0 0 0 0 0 0 0 0 0 0 0 0 0.06 0"/>
<feBlend mode="normal" in2="effect1_dropShadow" result="effect2_dropShadow"/>
<feBlend mode="normal" in="SourceGraphic" in2="effect2_dropShadow" result="shape"/>
</filter>
<filter id="filter1_dd" x="74.4205" y="82.6519" width="123.74" height="81.1631" filterUnits="userSpaceOnUse" color-interpolation-filters="sRGB">
<feFlood flood-opacity="0" result="BackgroundImageFix"/>
<feColorMatrix in="SourceAlpha" type="matrix" values="0 0 0 0 0 0 0 0 0 0 0 0 0 0 0 0 0 0 127 0"/>
<feOffset dy="1.8974"/>
<feGaussianBlur stdDeviation="1.42305"/>
<feColorMatrix type="matrix" values="0 0 0 0 0 0 0 0 0 0 0 0 0 0 0 0 0 0 0.1 0"/>
<feBlend mode="normal" in2="BackgroundImageFix" result="effect1_dropShadow"/>
<feColorMatrix in="SourceAlpha" type="matrix" values="0 0 0 0 0 0 0 0 0 0 0 0 0 0 0 0 0 0 127 0"/>
<feOffset dy="0.948701"/>
<feGaussianBlur stdDeviation="0.948701"/>
<feColorMatrix type="matrix" values="0 0 0 0 0 0 0 0 0 0 0 0 0 0 0 0 0 0 0.06 0"/>
<feBlend mode="normal" in2="effect1_dropShadow" result="effect2_dropShadow"/>
<feBlend mode="normal" in="SourceGraphic" in2="effect2_dropShadow" result="shape"/>
</filter>
</defs>
</svg>
