<svg width="190" height="190" viewBox="0 0 190 190" fill="none" xmlns="http://www.w3.org/2000/svg">
<circle opacity="0.75" cx="95" cy="95" r="95" fill="#C7D2FE"/>
<mask id="mask0" mask-type="alpha" maskUnits="userSpaceOnUse" x="0" y="0" width="190" height="190">
<circle cx="95" cy="95" r="95" fill="#111827"/>
</mask>
<g mask="url(#mask0)">
<g filter="url(#filter0_dd)">
<path d="M39 63C39 57.4772 43.4772 53 49 53H142C147.523 53 152 57.4772 152 63V82H39V63Z" fill="#E5E7EB"/>
</g>
<path d="M39 82H152V182.296C152 187.656 147.656 192 142.296 192H48.7035C43.3444 192 39 187.656 39 182.296V82Z" fill="#F9FAFB"/>
<rect x="64.8887" y="104.227" width="15.5047" height="1.86803" fill="#D1D5DB"/>
<rect x="64.8867" y="121.598" width="15.5047" height="1.86803" fill="#D1D5DB"/>
<rect x="64.8867" y="139.344" width="15.5047" height="1.86803" fill="#D1D5DB"/>
<rect x="64.8887" y="100.115" width="23.3504" height="1.86803" fill="#9CA3AF"/>
<rect x="64.8887" y="117.676" width="23.3504" height="1.86803" fill="#9CA3AF"/>
<rect x="64.8887" y="135.235" width="23.3504" height="1.86803" fill="#9CA3AF"/>
<rect x="47.8887" y="67.4258" width="47.448" height="3.73606" fill="#6B7280"/>
<rect x="121.303" y="67.4258" width="13.6366" height="3.73606" fill="#9CA3AF"/>
<rect x="117.746" y="100.101" width="13.6366" height="3.73606" fill="#9CA3AF"/>
<rect x="117.746" y="117.567" width="13.6366" height="3.73606" fill="#9CA3AF"/>
<rect x="117.746" y="135.219" width="13.6366" height="3.73606" fill="#9CA3AF"/>
<rect x="51.252" y="98.9736" width="11.2082" height="10.0874" rx="1.83854" fill="#D1D5DB"/>
<rect x="51.252" y="116.535" width="11.2082" height="10.0874" rx="1.83854" fill="#D1D5DB"/>
<rect x="51.252" y="134.093" width="11.2082" height="10.0874" rx="1.83854" fill="#D1D5DB"/>
<rect x="70.9863" y="160.945" width="46.7008" height="11.2082" rx="1.83854" fill="#818CF8"/>
<rect x="83.6875" y="165.992" width="25.0316" height="1.30762" fill="#F3F4F6"/>
<line x1="78.0315" y1="165.058" x2="78.0315" y2="168.233" stroke="white" stroke-width="0.367707"/>
<line x1="79.5801" y1="166.684" x2="76.4044" y2="166.684" stroke="white" stroke-width="0.367707"/>
</g>
<defs>
<filter id="filter0_dd" x="33" y="51" width="125" height="41" filterUnits="userSpaceOnUse" color-interpolation-filters="sRGB">
<feFlood flood-opacity="0" result="BackgroundImageFix"/>
<feColorMatrix in="SourceAlpha" type="matrix" values="0 0 0 0 0 0 0 0 0 0 0 0 0 0 0 0 0 0 127 0"/>
<feOffset dy="4"/>
<feGaussianBlur stdDeviation="3"/>
<feColorMatrix type="matrix" values="0 0 0 0 0 0 0 0 0 0 0 0 0 0 0 0 0 0 0.1 0"/>
<feBlend mode="normal" in2="BackgroundImageFix" result="effect1_dropShadow"/>
<feColorMatrix in="SourceAlpha" type="matrix" values="0 0 0 0 0 0 0 0 0 0 0 0 0 0 0 0 0 0 127 0"/>
<feOffset dy="2"/>
<feGaussianBlur stdDeviation="2"/>
<feColorMatrix type="matrix" values="0 0 0 0 0 0 0 0 0 0 0 0 0 0 0 0 0 0 0.06 0"/>
<feBlend mode="normal" in2="effect1_dropShadow" result="effect2_dropShadow"/>
<feBlend mode="normal" in="SourceGraphic" in2="effect2_dropShadow" result="shape"/>
</filter>
</defs>
</svg>
